<mxfile host="app.diagrams.net" modified="2023-04-27T09:33:03.493Z" agent="Mozilla/5.0 (Windows NT 10.0; Win64; x64) AppleWebKit/537.36 (KHTML, like Gecko) Chrome/112.0.0.0 Safari/537.36 Edg/112.0.1722.48" etag="hC-XL1QaRAx8cRCZyRZ4" version="21.2.1" type="github">
  <diagram name="第 1 页" id="CLDj4X9ujEbxAbyUNnmX">
    <mxGraphModel dx="698" dy="409" grid="1" gridSize="10" guides="1" tooltips="1" connect="1" arrows="1" fold="1" page="1" pageScale="1" pageWidth="827" pageHeight="1169" math="0" shadow="0">
      <root>
        <mxCell id="0" />
        <mxCell id="1" parent="0" />
        <mxCell id="v0rDUmOaslSgm1lw28pi-80" value="" style="group" vertex="1" connectable="0" parent="1">
          <mxGeometry x="120" y="100" width="480" height="340" as="geometry" />
        </mxCell>
        <mxCell id="v0rDUmOaslSgm1lw28pi-70" value="" style="group" vertex="1" connectable="0" parent="v0rDUmOaslSgm1lw28pi-80">
          <mxGeometry x="60" width="360" height="340" as="geometry" />
        </mxCell>
        <mxCell id="v0rDUmOaslSgm1lw28pi-1" value="" style="ellipse;whiteSpace=wrap;html=1;aspect=fixed;fillColor=#d5e8d4;strokeColor=#82b366;" vertex="1" parent="v0rDUmOaslSgm1lw28pi-70">
          <mxGeometry x="20" y="110" width="40" height="40" as="geometry" />
        </mxCell>
        <mxCell id="v0rDUmOaslSgm1lw28pi-2" value="" style="ellipse;whiteSpace=wrap;html=1;aspect=fixed;fillColor=#d5e8d4;strokeColor=#82b366;" vertex="1" parent="v0rDUmOaslSgm1lw28pi-70">
          <mxGeometry x="20" y="230" width="40" height="40" as="geometry" />
        </mxCell>
        <mxCell id="v0rDUmOaslSgm1lw28pi-4" value="" style="ellipse;whiteSpace=wrap;html=1;aspect=fixed;fillColor=#d5e8d4;strokeColor=#82b366;" vertex="1" parent="v0rDUmOaslSgm1lw28pi-70">
          <mxGeometry x="20" y="170" width="40" height="40" as="geometry" />
        </mxCell>
        <mxCell id="v0rDUmOaslSgm1lw28pi-7" value="&lt;b&gt;&lt;font style=&quot;font-size: 18px;&quot;&gt;输入层&lt;/font&gt;&lt;/b&gt;" style="text;html=1;align=center;verticalAlign=middle;resizable=0;points=[];autosize=1;strokeColor=none;fillColor=none;" vertex="1" parent="v0rDUmOaslSgm1lw28pi-70">
          <mxGeometry width="80" height="40" as="geometry" />
        </mxCell>
        <mxCell id="v0rDUmOaslSgm1lw28pi-8" value="&lt;b&gt;&lt;font style=&quot;font-size: 18px;&quot;&gt;隐藏层&lt;/font&gt;&lt;/b&gt;" style="text;html=1;align=center;verticalAlign=middle;resizable=0;points=[];autosize=1;strokeColor=none;fillColor=none;" vertex="1" parent="v0rDUmOaslSgm1lw28pi-70">
          <mxGeometry x="140" width="80" height="40" as="geometry" />
        </mxCell>
        <mxCell id="v0rDUmOaslSgm1lw28pi-9" value="&lt;b&gt;&lt;font style=&quot;font-size: 18px;&quot;&gt;输出层&lt;/font&gt;&lt;/b&gt;" style="text;html=1;align=center;verticalAlign=middle;resizable=0;points=[];autosize=1;strokeColor=none;fillColor=none;" vertex="1" parent="v0rDUmOaslSgm1lw28pi-70">
          <mxGeometry x="280" width="80" height="40" as="geometry" />
        </mxCell>
        <mxCell id="v0rDUmOaslSgm1lw28pi-10" value="" style="ellipse;whiteSpace=wrap;html=1;aspect=fixed;fillColor=#dae8fc;strokeColor=#6c8ebf;" vertex="1" parent="v0rDUmOaslSgm1lw28pi-70">
          <mxGeometry x="160" y="60" width="40" height="40" as="geometry" />
        </mxCell>
        <mxCell id="v0rDUmOaslSgm1lw28pi-11" value="" style="ellipse;whiteSpace=wrap;html=1;aspect=fixed;fillColor=#dae8fc;strokeColor=#6c8ebf;" vertex="1" parent="v0rDUmOaslSgm1lw28pi-70">
          <mxGeometry x="160" y="120" width="40" height="40" as="geometry" />
        </mxCell>
        <mxCell id="v0rDUmOaslSgm1lw28pi-12" value="" style="ellipse;whiteSpace=wrap;html=1;aspect=fixed;fillColor=#dae8fc;strokeColor=#6c8ebf;" vertex="1" parent="v0rDUmOaslSgm1lw28pi-70">
          <mxGeometry x="160" y="180" width="40" height="40" as="geometry" />
        </mxCell>
        <mxCell id="v0rDUmOaslSgm1lw28pi-13" value="" style="ellipse;whiteSpace=wrap;html=1;aspect=fixed;fillColor=#dae8fc;strokeColor=#6c8ebf;" vertex="1" parent="v0rDUmOaslSgm1lw28pi-70">
          <mxGeometry x="160" y="240" width="40" height="40" as="geometry" />
        </mxCell>
        <mxCell id="v0rDUmOaslSgm1lw28pi-14" value="" style="ellipse;whiteSpace=wrap;html=1;aspect=fixed;fillColor=#dae8fc;strokeColor=#6c8ebf;" vertex="1" parent="v0rDUmOaslSgm1lw28pi-70">
          <mxGeometry x="160" y="300" width="40" height="40" as="geometry" />
        </mxCell>
        <mxCell id="v0rDUmOaslSgm1lw28pi-15" value="" style="ellipse;whiteSpace=wrap;html=1;aspect=fixed;fillColor=#ffe6cc;strokeColor=#d79b00;" vertex="1" parent="v0rDUmOaslSgm1lw28pi-70">
          <mxGeometry x="300" y="110" width="40" height="40" as="geometry" />
        </mxCell>
        <mxCell id="v0rDUmOaslSgm1lw28pi-16" value="" style="ellipse;whiteSpace=wrap;html=1;aspect=fixed;fillColor=#ffe6cc;strokeColor=#d79b00;" vertex="1" parent="v0rDUmOaslSgm1lw28pi-70">
          <mxGeometry x="300" y="230" width="40" height="40" as="geometry" />
        </mxCell>
        <mxCell id="v0rDUmOaslSgm1lw28pi-17" value="" style="ellipse;whiteSpace=wrap;html=1;aspect=fixed;fillColor=#ffe6cc;strokeColor=#d79b00;" vertex="1" parent="v0rDUmOaslSgm1lw28pi-70">
          <mxGeometry x="300" y="170" width="40" height="40" as="geometry" />
        </mxCell>
        <mxCell id="v0rDUmOaslSgm1lw28pi-19" value="" style="endArrow=none;html=1;rounded=0;exitX=1;exitY=0.5;exitDx=0;exitDy=0;entryX=0;entryY=0.5;entryDx=0;entryDy=0;fillColor=#f5f5f5;strokeColor=#666666;" edge="1" parent="v0rDUmOaslSgm1lw28pi-70" source="v0rDUmOaslSgm1lw28pi-1" target="v0rDUmOaslSgm1lw28pi-10">
          <mxGeometry width="50" height="50" relative="1" as="geometry">
            <mxPoint x="60" y="100" as="sourcePoint" />
            <mxPoint x="110" y="50" as="targetPoint" />
          </mxGeometry>
        </mxCell>
        <mxCell id="v0rDUmOaslSgm1lw28pi-20" value="" style="endArrow=none;html=1;rounded=0;exitX=1;exitY=0.5;exitDx=0;exitDy=0;entryX=0;entryY=0.5;entryDx=0;entryDy=0;fillColor=#f5f5f5;strokeColor=#666666;" edge="1" parent="v0rDUmOaslSgm1lw28pi-70" source="v0rDUmOaslSgm1lw28pi-1" target="v0rDUmOaslSgm1lw28pi-11">
          <mxGeometry width="50" height="50" relative="1" as="geometry">
            <mxPoint x="64" y="116" as="sourcePoint" />
            <mxPoint x="170" y="90" as="targetPoint" />
          </mxGeometry>
        </mxCell>
        <mxCell id="v0rDUmOaslSgm1lw28pi-21" value="" style="endArrow=none;html=1;rounded=0;exitX=1;exitY=0.5;exitDx=0;exitDy=0;entryX=0;entryY=0.5;entryDx=0;entryDy=0;fillColor=#f5f5f5;strokeColor=#666666;" edge="1" parent="v0rDUmOaslSgm1lw28pi-70" source="v0rDUmOaslSgm1lw28pi-1" target="v0rDUmOaslSgm1lw28pi-12">
          <mxGeometry width="50" height="50" relative="1" as="geometry">
            <mxPoint x="70" y="130" as="sourcePoint" />
            <mxPoint x="170" y="150" as="targetPoint" />
          </mxGeometry>
        </mxCell>
        <mxCell id="v0rDUmOaslSgm1lw28pi-22" value="" style="endArrow=none;html=1;rounded=0;exitX=1;exitY=0.5;exitDx=0;exitDy=0;entryX=0;entryY=0.5;entryDx=0;entryDy=0;fillColor=#f5f5f5;strokeColor=#666666;" edge="1" parent="v0rDUmOaslSgm1lw28pi-70" source="v0rDUmOaslSgm1lw28pi-1" target="v0rDUmOaslSgm1lw28pi-13">
          <mxGeometry width="50" height="50" relative="1" as="geometry">
            <mxPoint x="70" y="130" as="sourcePoint" />
            <mxPoint x="170" y="210" as="targetPoint" />
          </mxGeometry>
        </mxCell>
        <mxCell id="v0rDUmOaslSgm1lw28pi-23" value="" style="endArrow=none;html=1;rounded=0;entryX=0;entryY=0.5;entryDx=0;entryDy=0;exitX=1;exitY=0.5;exitDx=0;exitDy=0;fillColor=#f5f5f5;strokeColor=#666666;" edge="1" parent="v0rDUmOaslSgm1lw28pi-70" source="v0rDUmOaslSgm1lw28pi-1" target="v0rDUmOaslSgm1lw28pi-14">
          <mxGeometry width="50" height="50" relative="1" as="geometry">
            <mxPoint x="60" y="120" as="sourcePoint" />
            <mxPoint x="170" y="270" as="targetPoint" />
          </mxGeometry>
        </mxCell>
        <mxCell id="v0rDUmOaslSgm1lw28pi-24" value="" style="endArrow=none;html=1;rounded=0;exitX=1;exitY=0.5;exitDx=0;exitDy=0;fillColor=#f5f5f5;strokeColor=#666666;" edge="1" parent="v0rDUmOaslSgm1lw28pi-70" source="v0rDUmOaslSgm1lw28pi-4">
          <mxGeometry width="50" height="50" relative="1" as="geometry">
            <mxPoint x="80" y="140" as="sourcePoint" />
            <mxPoint x="160" y="80" as="targetPoint" />
          </mxGeometry>
        </mxCell>
        <mxCell id="v0rDUmOaslSgm1lw28pi-25" value="" style="endArrow=none;html=1;rounded=0;entryX=0;entryY=0.5;entryDx=0;entryDy=0;exitX=1;exitY=0.5;exitDx=0;exitDy=0;fillColor=#f5f5f5;strokeColor=#666666;" edge="1" parent="v0rDUmOaslSgm1lw28pi-70" source="v0rDUmOaslSgm1lw28pi-4" target="v0rDUmOaslSgm1lw28pi-11">
          <mxGeometry width="50" height="50" relative="1" as="geometry">
            <mxPoint x="60" y="180" as="sourcePoint" />
            <mxPoint x="190" y="290" as="targetPoint" />
          </mxGeometry>
        </mxCell>
        <mxCell id="v0rDUmOaslSgm1lw28pi-26" value="" style="endArrow=none;html=1;rounded=0;entryX=0;entryY=0.5;entryDx=0;entryDy=0;exitX=1;exitY=0.5;exitDx=0;exitDy=0;fillColor=#f5f5f5;strokeColor=#666666;" edge="1" parent="v0rDUmOaslSgm1lw28pi-70" source="v0rDUmOaslSgm1lw28pi-4" target="v0rDUmOaslSgm1lw28pi-12">
          <mxGeometry width="50" height="50" relative="1" as="geometry">
            <mxPoint x="70" y="190" as="sourcePoint" />
            <mxPoint x="170" y="150" as="targetPoint" />
          </mxGeometry>
        </mxCell>
        <mxCell id="v0rDUmOaslSgm1lw28pi-27" value="" style="endArrow=none;html=1;rounded=0;entryX=0;entryY=0.5;entryDx=0;entryDy=0;fillColor=#f5f5f5;strokeColor=#666666;" edge="1" parent="v0rDUmOaslSgm1lw28pi-70" target="v0rDUmOaslSgm1lw28pi-13">
          <mxGeometry width="50" height="50" relative="1" as="geometry">
            <mxPoint x="60" y="190" as="sourcePoint" />
            <mxPoint x="170" y="210" as="targetPoint" />
          </mxGeometry>
        </mxCell>
        <mxCell id="v0rDUmOaslSgm1lw28pi-28" value="" style="endArrow=none;html=1;rounded=0;exitX=1;exitY=0.5;exitDx=0;exitDy=0;fillColor=#f5f5f5;strokeColor=#666666;" edge="1" parent="v0rDUmOaslSgm1lw28pi-70" source="v0rDUmOaslSgm1lw28pi-4">
          <mxGeometry width="50" height="50" relative="1" as="geometry">
            <mxPoint x="60" y="180" as="sourcePoint" />
            <mxPoint x="160" y="320" as="targetPoint" />
          </mxGeometry>
        </mxCell>
        <mxCell id="v0rDUmOaslSgm1lw28pi-29" value="" style="endArrow=none;html=1;rounded=0;exitX=1;exitY=0.5;exitDx=0;exitDy=0;entryX=0;entryY=0.5;entryDx=0;entryDy=0;fillColor=#f5f5f5;strokeColor=#666666;" edge="1" parent="v0rDUmOaslSgm1lw28pi-70" source="v0rDUmOaslSgm1lw28pi-2" target="v0rDUmOaslSgm1lw28pi-14">
          <mxGeometry width="50" height="50" relative="1" as="geometry">
            <mxPoint x="70" y="190" as="sourcePoint" />
            <mxPoint x="170" y="330" as="targetPoint" />
          </mxGeometry>
        </mxCell>
        <mxCell id="v0rDUmOaslSgm1lw28pi-30" value="" style="endArrow=none;html=1;rounded=0;exitX=1;exitY=0.5;exitDx=0;exitDy=0;entryX=0;entryY=0.5;entryDx=0;entryDy=0;fillColor=#f5f5f5;strokeColor=#666666;" edge="1" parent="v0rDUmOaslSgm1lw28pi-70" source="v0rDUmOaslSgm1lw28pi-2" target="v0rDUmOaslSgm1lw28pi-13">
          <mxGeometry width="50" height="50" relative="1" as="geometry">
            <mxPoint x="70" y="250" as="sourcePoint" />
            <mxPoint x="170" y="330" as="targetPoint" />
          </mxGeometry>
        </mxCell>
        <mxCell id="v0rDUmOaslSgm1lw28pi-31" value="" style="endArrow=none;html=1;rounded=0;entryX=0;entryY=0.5;entryDx=0;entryDy=0;fillColor=#f5f5f5;strokeColor=#666666;" edge="1" parent="v0rDUmOaslSgm1lw28pi-70" target="v0rDUmOaslSgm1lw28pi-12">
          <mxGeometry width="50" height="50" relative="1" as="geometry">
            <mxPoint x="60" y="250" as="sourcePoint" />
            <mxPoint x="170" y="270" as="targetPoint" />
          </mxGeometry>
        </mxCell>
        <mxCell id="v0rDUmOaslSgm1lw28pi-32" value="" style="endArrow=none;html=1;rounded=0;entryX=0;entryY=0.5;entryDx=0;entryDy=0;fillColor=#f5f5f5;strokeColor=#666666;" edge="1" parent="v0rDUmOaslSgm1lw28pi-70" target="v0rDUmOaslSgm1lw28pi-11">
          <mxGeometry width="50" height="50" relative="1" as="geometry">
            <mxPoint x="60" y="250" as="sourcePoint" />
            <mxPoint x="170" y="210" as="targetPoint" />
          </mxGeometry>
        </mxCell>
        <mxCell id="v0rDUmOaslSgm1lw28pi-33" value="" style="endArrow=none;html=1;rounded=0;exitX=1;exitY=0.5;exitDx=0;exitDy=0;fillColor=#f5f5f5;strokeColor=#666666;" edge="1" parent="v0rDUmOaslSgm1lw28pi-70" source="v0rDUmOaslSgm1lw28pi-2">
          <mxGeometry width="50" height="50" relative="1" as="geometry">
            <mxPoint x="70" y="250" as="sourcePoint" />
            <mxPoint x="160" y="80" as="targetPoint" />
          </mxGeometry>
        </mxCell>
        <mxCell id="v0rDUmOaslSgm1lw28pi-50" value="" style="endArrow=none;html=1;rounded=0;entryX=0;entryY=0.5;entryDx=0;entryDy=0;fillColor=#ffcc99;strokeColor=#838991;" edge="1" parent="v0rDUmOaslSgm1lw28pi-70">
          <mxGeometry width="50" height="50" relative="1" as="geometry">
            <mxPoint x="300" y="250" as="sourcePoint" />
            <mxPoint x="200" y="320" as="targetPoint" />
          </mxGeometry>
        </mxCell>
        <mxCell id="v0rDUmOaslSgm1lw28pi-51" value="" style="endArrow=none;html=1;rounded=0;entryX=0;entryY=0.5;entryDx=0;entryDy=0;fillColor=#ffcc99;strokeColor=#838991;" edge="1" parent="v0rDUmOaslSgm1lw28pi-70">
          <mxGeometry width="50" height="50" relative="1" as="geometry">
            <mxPoint x="300" y="250" as="sourcePoint" />
            <mxPoint x="200" y="260" as="targetPoint" />
          </mxGeometry>
        </mxCell>
        <mxCell id="v0rDUmOaslSgm1lw28pi-52" value="" style="endArrow=none;html=1;rounded=0;entryX=0;entryY=0.5;entryDx=0;entryDy=0;fillColor=#ffcc99;strokeColor=#838991;" edge="1" parent="v0rDUmOaslSgm1lw28pi-70">
          <mxGeometry width="50" height="50" relative="1" as="geometry">
            <mxPoint x="300" y="250" as="sourcePoint" />
            <mxPoint x="200" y="200" as="targetPoint" />
          </mxGeometry>
        </mxCell>
        <mxCell id="v0rDUmOaslSgm1lw28pi-53" value="" style="endArrow=none;html=1;rounded=0;entryX=0;entryY=0.5;entryDx=0;entryDy=0;fillColor=#ffcc99;strokeColor=#838991;" edge="1" parent="v0rDUmOaslSgm1lw28pi-70">
          <mxGeometry width="50" height="50" relative="1" as="geometry">
            <mxPoint x="300" y="250" as="sourcePoint" />
            <mxPoint x="200" y="140" as="targetPoint" />
          </mxGeometry>
        </mxCell>
        <mxCell id="v0rDUmOaslSgm1lw28pi-54" value="" style="endArrow=none;html=1;rounded=0;entryX=0;entryY=0.5;entryDx=0;entryDy=0;fillColor=#ffcc99;strokeColor=#838991;" edge="1" parent="v0rDUmOaslSgm1lw28pi-70">
          <mxGeometry width="50" height="50" relative="1" as="geometry">
            <mxPoint x="300" y="250" as="sourcePoint" />
            <mxPoint x="200" y="80" as="targetPoint" />
          </mxGeometry>
        </mxCell>
        <mxCell id="v0rDUmOaslSgm1lw28pi-55" value="" style="endArrow=none;html=1;rounded=0;fillColor=#ffcc99;strokeColor=#838991;" edge="1" parent="v0rDUmOaslSgm1lw28pi-70">
          <mxGeometry width="50" height="50" relative="1" as="geometry">
            <mxPoint x="300" y="190" as="sourcePoint" />
            <mxPoint x="200" y="320" as="targetPoint" />
          </mxGeometry>
        </mxCell>
        <mxCell id="v0rDUmOaslSgm1lw28pi-56" value="" style="endArrow=none;html=1;rounded=0;entryX=0;entryY=0.5;entryDx=0;entryDy=0;fillColor=#ffcc99;strokeColor=#838991;" edge="1" parent="v0rDUmOaslSgm1lw28pi-70">
          <mxGeometry width="50" height="50" relative="1" as="geometry">
            <mxPoint x="300" y="190" as="sourcePoint" />
            <mxPoint x="200" y="260" as="targetPoint" />
          </mxGeometry>
        </mxCell>
        <mxCell id="v0rDUmOaslSgm1lw28pi-57" value="" style="endArrow=none;html=1;rounded=0;entryX=0;entryY=0.5;entryDx=0;entryDy=0;fillColor=#ffcc99;strokeColor=#838991;" edge="1" parent="v0rDUmOaslSgm1lw28pi-70">
          <mxGeometry width="50" height="50" relative="1" as="geometry">
            <mxPoint x="300" y="190" as="sourcePoint" />
            <mxPoint x="200" y="200" as="targetPoint" />
          </mxGeometry>
        </mxCell>
        <mxCell id="v0rDUmOaslSgm1lw28pi-58" value="" style="endArrow=none;html=1;rounded=0;entryX=0;entryY=0.5;entryDx=0;entryDy=0;fillColor=#ffcc99;strokeColor=#838991;" edge="1" parent="v0rDUmOaslSgm1lw28pi-70">
          <mxGeometry width="50" height="50" relative="1" as="geometry">
            <mxPoint x="300" y="190" as="sourcePoint" />
            <mxPoint x="200" y="140" as="targetPoint" />
          </mxGeometry>
        </mxCell>
        <mxCell id="v0rDUmOaslSgm1lw28pi-59" value="" style="endArrow=none;html=1;rounded=0;fillColor=#ffcc99;strokeColor=#838991;" edge="1" parent="v0rDUmOaslSgm1lw28pi-70">
          <mxGeometry width="50" height="50" relative="1" as="geometry">
            <mxPoint x="300" y="190" as="sourcePoint" />
            <mxPoint x="200" y="80" as="targetPoint" />
          </mxGeometry>
        </mxCell>
        <mxCell id="v0rDUmOaslSgm1lw28pi-60" value="" style="endArrow=none;html=1;rounded=0;entryX=0;entryY=0.5;entryDx=0;entryDy=0;fillColor=#ffcc99;strokeColor=#838991;" edge="1" parent="v0rDUmOaslSgm1lw28pi-70">
          <mxGeometry width="50" height="50" relative="1" as="geometry">
            <mxPoint x="300" y="130" as="sourcePoint" />
            <mxPoint x="200" y="80" as="targetPoint" />
          </mxGeometry>
        </mxCell>
        <mxCell id="v0rDUmOaslSgm1lw28pi-61" value="" style="endArrow=none;html=1;rounded=0;entryX=0;entryY=0.5;entryDx=0;entryDy=0;fillColor=#ffcc99;strokeColor=#838991;" edge="1" parent="v0rDUmOaslSgm1lw28pi-70">
          <mxGeometry width="50" height="50" relative="1" as="geometry">
            <mxPoint x="300" y="130" as="sourcePoint" />
            <mxPoint x="200" y="140" as="targetPoint" />
          </mxGeometry>
        </mxCell>
        <mxCell id="v0rDUmOaslSgm1lw28pi-62" value="" style="endArrow=none;html=1;rounded=0;entryX=0;entryY=0.5;entryDx=0;entryDy=0;fillColor=#ffcc99;strokeColor=#838991;" edge="1" parent="v0rDUmOaslSgm1lw28pi-70">
          <mxGeometry width="50" height="50" relative="1" as="geometry">
            <mxPoint x="300" y="130" as="sourcePoint" />
            <mxPoint x="200" y="200" as="targetPoint" />
          </mxGeometry>
        </mxCell>
        <mxCell id="v0rDUmOaslSgm1lw28pi-63" value="" style="endArrow=none;html=1;rounded=0;entryX=0;entryY=0.5;entryDx=0;entryDy=0;fillColor=#ffcc99;strokeColor=#838991;" edge="1" parent="v0rDUmOaslSgm1lw28pi-70">
          <mxGeometry width="50" height="50" relative="1" as="geometry">
            <mxPoint x="300" y="130" as="sourcePoint" />
            <mxPoint x="200" y="260" as="targetPoint" />
          </mxGeometry>
        </mxCell>
        <mxCell id="v0rDUmOaslSgm1lw28pi-64" value="" style="endArrow=none;html=1;rounded=0;fillColor=#ffcc99;strokeColor=#838991;" edge="1" parent="v0rDUmOaslSgm1lw28pi-70">
          <mxGeometry width="50" height="50" relative="1" as="geometry">
            <mxPoint x="300" y="130" as="sourcePoint" />
            <mxPoint x="200" y="320" as="targetPoint" />
          </mxGeometry>
        </mxCell>
        <mxCell id="v0rDUmOaslSgm1lw28pi-71" value="源领域&lt;br&gt;&lt;br&gt;用户嵌入" style="rounded=1;whiteSpace=wrap;html=1;fillColor=#eeeeee;strokeColor=#36393d;" vertex="1" parent="v0rDUmOaslSgm1lw28pi-80">
          <mxGeometry y="130" width="50" height="120" as="geometry" />
        </mxCell>
        <mxCell id="v0rDUmOaslSgm1lw28pi-73" value="" style="endArrow=classic;html=1;rounded=0;exitX=1;exitY=0.5;exitDx=0;exitDy=0;fillColor=#eeeeee;strokeColor=#36393d;" edge="1" parent="v0rDUmOaslSgm1lw28pi-80" source="v0rDUmOaslSgm1lw28pi-71">
          <mxGeometry width="50" height="50" relative="1" as="geometry">
            <mxPoint x="50" y="180" as="sourcePoint" />
            <mxPoint x="80" y="130" as="targetPoint" />
          </mxGeometry>
        </mxCell>
        <mxCell id="v0rDUmOaslSgm1lw28pi-74" value="" style="endArrow=classic;html=1;rounded=0;exitX=1;exitY=0.5;exitDx=0;exitDy=0;fillColor=#eeeeee;strokeColor=#36393d;" edge="1" parent="v0rDUmOaslSgm1lw28pi-80" source="v0rDUmOaslSgm1lw28pi-71">
          <mxGeometry width="50" height="50" relative="1" as="geometry">
            <mxPoint x="50" y="180" as="sourcePoint" />
            <mxPoint x="80" y="190" as="targetPoint" />
          </mxGeometry>
        </mxCell>
        <mxCell id="v0rDUmOaslSgm1lw28pi-75" value="" style="endArrow=classic;html=1;rounded=0;entryX=0;entryY=0.5;entryDx=0;entryDy=0;exitX=1;exitY=0.5;exitDx=0;exitDy=0;fillColor=#eeeeee;strokeColor=#36393d;" edge="1" parent="v0rDUmOaslSgm1lw28pi-80" source="v0rDUmOaslSgm1lw28pi-71" target="v0rDUmOaslSgm1lw28pi-2">
          <mxGeometry width="50" height="50" relative="1" as="geometry">
            <mxPoint x="60" y="190" as="sourcePoint" />
            <mxPoint x="90" y="200" as="targetPoint" />
          </mxGeometry>
        </mxCell>
        <mxCell id="v0rDUmOaslSgm1lw28pi-76" value="目标领域&lt;br&gt;&lt;br&gt;用户嵌入" style="rounded=1;whiteSpace=wrap;html=1;fillColor=#eeeeee;strokeColor=#36393d;" vertex="1" parent="v0rDUmOaslSgm1lw28pi-80">
          <mxGeometry x="430" y="130" width="50" height="120" as="geometry" />
        </mxCell>
        <mxCell id="v0rDUmOaslSgm1lw28pi-77" value="" style="endArrow=classic;html=1;rounded=0;fillColor=#eeeeee;strokeColor=#36393d;exitX=1;exitY=0.5;exitDx=0;exitDy=0;entryX=0;entryY=0.5;entryDx=0;entryDy=0;" edge="1" parent="v0rDUmOaslSgm1lw28pi-80" source="v0rDUmOaslSgm1lw28pi-15" target="v0rDUmOaslSgm1lw28pi-76">
          <mxGeometry width="50" height="50" relative="1" as="geometry">
            <mxPoint x="420" y="130" as="sourcePoint" />
            <mxPoint x="430" y="190" as="targetPoint" />
          </mxGeometry>
        </mxCell>
        <mxCell id="v0rDUmOaslSgm1lw28pi-78" value="" style="endArrow=classic;html=1;rounded=0;exitX=1;exitY=0.5;exitDx=0;exitDy=0;fillColor=#eeeeee;strokeColor=#36393d;entryX=0;entryY=0.5;entryDx=0;entryDy=0;" edge="1" parent="v0rDUmOaslSgm1lw28pi-80" source="v0rDUmOaslSgm1lw28pi-17" target="v0rDUmOaslSgm1lw28pi-76">
          <mxGeometry width="50" height="50" relative="1" as="geometry">
            <mxPoint x="440" y="200" as="sourcePoint" />
            <mxPoint x="400" y="170" as="targetPoint" />
          </mxGeometry>
        </mxCell>
        <mxCell id="v0rDUmOaslSgm1lw28pi-79" value="" style="endArrow=classic;html=1;rounded=0;exitX=1;exitY=0.5;exitDx=0;exitDy=0;fillColor=#eeeeee;strokeColor=#36393d;entryX=0;entryY=0.5;entryDx=0;entryDy=0;" edge="1" parent="v0rDUmOaslSgm1lw28pi-80" source="v0rDUmOaslSgm1lw28pi-16" target="v0rDUmOaslSgm1lw28pi-76">
          <mxGeometry width="50" height="50" relative="1" as="geometry">
            <mxPoint x="440" y="200" as="sourcePoint" />
            <mxPoint x="420" y="250" as="targetPoint" />
          </mxGeometry>
        </mxCell>
      </root>
    </mxGraphModel>
  </diagram>
</mxfile>
